<svg xmlns="http://www.w3.org/2000/svg" viewBox="0 0 22 22"><defs><style>.a{fill:#ffcb0b;}</style></defs><title>icon-echt</title><circle class="a" cx="11" cy="11" r="11"/><path d="M8.15,13.57a0.34,0.34,0,0,1-.34-0.34V8.77a0.34,0.34,0,0,1,.67,0v4.46A0.34,0.34,0,0,1,8.15,13.57Z"/><path d="M13.89,13.57a0.34,0.34,0,0,1-.34-0.34V8.77a0.34,0.34,0,0,1,.67,0v4.46A0.34,0.34,0,0,1,13.89,13.57Z"/><path d="M13.84,11.34H8.16a0.34,0.34,0,1,1,0-.67h5.67A0.34,0.34,0,1,1,13.84,11.34Z"/><path d="M10.11,14.79h1.75a0.34,0.34,0,1,1,0,.67H10.11A0.34,0.34,0,1,1,10.11,14.79Z"/><path d="M11,12.39a0.34,0.34,0,0,1,.34.34v2.4a0.34,0.34,0,1,1-.67,0v-2.4A0.34,0.34,0,0,1,11,12.39Z"/><path d="M10.12,9.51a0.34,0.34,0,0,1-.34-0.34V6.77a0.34,0.34,0,1,1,.67,0v2.4A0.34,0.34,0,0,1,10.12,9.51Z"/><path d="M11.88,7.1H10.13a0.34,0.34,0,0,1,0-.67h1.75A0.34,0.34,0,0,1,11.88,7.1Z"/><path d="M11.88,9.51H10.13a0.34,0.34,0,0,1,0-.67h1.75A0.34,0.34,0,0,1,11.88,9.51Z"/><path d="M11.35,8.31H10.13a0.34,0.34,0,0,1,0-.67h1.22A0.34,0.34,0,1,1,11.35,8.31Z"/><path d="M16.82,12.23a5.88,5.88,0,1,1,0-2.54,0.33,0.33,0,0,0,.33.26h0a0.34,0.34,0,0,0,.33-0.41,6.57,6.57,0,0,0-8-4.9A6.44,6.44,0,0,0,4.71,9.37a6.56,6.56,0,1,0,12.76,3A0.35,0.35,0,0,0,17.14,12h0A0.32,0.32,0,0,0,16.82,12.23Z"/><path d="M11,19.95A8.95,8.95,0,0,1,4.67,4.67,8.95,8.95,0,1,1,17.33,17.33,8.89,8.89,0,0,1,11,19.95ZM11,2.73a8.27,8.27,0,1,0,5.85,2.42A8.22,8.22,0,0,0,11,2.73Z"/></svg>