<?xml version="1.0" encoding="utf-8"?>
<!-- Generator: Adobe Illustrator 19.2.1, SVG Export Plug-In . SVG Version: 6.00 Build 0)  -->
<svg fill="#fff" version="1.1" id="Layer_1" xmlns="http://www.w3.org/2000/svg" xmlns:xlink="http://www.w3.org/1999/xlink" x="0px" y="0px"
	 viewBox="0 0 200 200" style="enable-background:new 0 0 200 200;" xml:space="preserve">
<path d="M140.7,50h-57c-3,0-5.5,2.5-5.5,5.5s2.5,5.5,5.5,5.5h43.7L92,96.3c0,0,0,0,0,0l-35.5,35.5c-2.1,2.1-2.1,5.6,0,7.8
	c2.1,2.1,5.6,2.1,7.8,0L99.7,104l4.7-4.8L135,68.6v43.8c0,3,2.5,5.5,5.5,5.5c3,0,5.5-2.5,5.5-5.5v-57C146,52.4,143.7,50,140.7,50z"
	/>
</svg>
