<?xml version="1.0" encoding="UTF-8" standalone="no"?>
<svg
   xmlns:svg="http://www.w3.org/2000/svg"
   xmlns="http://www.w3.org/2000/svg"
   xmlns:sodipodi="http://sodipodi.sourceforge.net/DTD/sodipodi-0.dtd"
   xmlns:inkscape="http://www.inkscape.org/namespaces/inkscape"
   viewBox="0 0 156 27"
   version="1.1"
   id="svg5090"
   sodipodi:docname="eea.svg"
   inkscape:version="0.92.1 r15371">
  <g
     id="EEA_LOGO-white">
    <path
       inkscape:connector-curvature="0"
       class="cls-1"
       d="M 25.857209,15.636083 H 5.7500479 c 0.7532683,3.568026 3.4572313,6.184579 7.6677311,6.184579 2.754981,0 5.101817,-1.108045 6.302244,-3.468664 h 5.861088 C 23.94369,23.537265 19.12706,27.044746 13.705882,26.999569 5.1618384,26.999569 0,21.016727 0,13.525378 0,5.9978968 5.4619453,0 13.02764,0 21.046496,0 27.00962,6.2357652 25.857209,15.636083 Z M 5.8640885,11.119595 H 20.107161 C 19.705018,7.7502944 16.899019,5.1879399 13.291734,5.1879399 9.369337,5.1789069 6.6653739,7.6418986 5.8640885,11.110562 Z"
       id="Shape"
       style="fill:#015aaa;fill-opacity:1" />
    <path
       inkscape:connector-curvature="0"
       class="cls-1"
       d="M 40.981639,0 C 48.541945,0 54,5.9828328 54,13.525357 54,21.016695 48.841838,26.999528 40.279889,26.999528 34.866632,27.046763 30.054711,23.546324 28.413117,18.367026 h 5.856913 c 1.199573,2.360614 3.556733,3.468658 6.297756,3.468658 4.198504,0 6.912537,-2.616549 7.66227,-6.184569 H 28.137215 C 27.009617,6.2357558 32.968494,0 40.981639,0 Z m -0.251911,5.178899 c -3.598717,0 -6.408716,2.5623507 -6.810573,5.931646 H 48.152084 C 47.339373,7.6418871 44.637336,5.178899 40.729728,5.178899 Z"
       id="path5037"
       style="fill:#015aaa;fill-opacity:1" />
    <path
       inkscape:connector-curvature="0"
       class="cls-2"
       d="M 79,9.867 V 26.4 H 72.893907 V 22.743 C 71.110927,25.398 68.152525,27 64.278209,27 58.672815,27 55,23.844 55,19.134 c 0,-4.656 3.874316,-8.013 11.064241,-8.013 h 6.829666 V 10.02 c 0,-3.057 -1.78298,-4.911 -5.452742,-4.911 -2.958402,0 -5.046686,1.302 -5.403892,3.858 h -6.18242 C 56.263961,3.807 60.700038,0 67.529704,0 74.92113,0 79,3.708 79,9.867 Z m -6.106093,6 v -0.45 h -6.841878 c -3.159903,0 -4.884875,1.401 -4.884875,3.357 0,2.1 1.682229,3.504 4.790231,3.504 3.852944,0.012 6.924309,-2.478 6.924309,-6.399 z"
       id="path5039"
       style="fill:#152c51;fill-opacity:1" />
    <path
       inkscape:connector-curvature="0"
       class="cls-2"
       d="m 84.000026,13.999581 c -0.0034,-0.801747 0.322853,-1.571179 0.905406,-2.135249 0.582554,-0.56407 1.372491,-0.875421 2.192154,-0.86403 1.351757,-0.0024 2.53907,0.877564 2.902414,2.150998 h -0.957146 c -0.303536,-0.806081 -1.098238,-1.333594 -1.976243,-1.311806 -1.185055,0.04346 -2.122824,0.995683 -2.122824,2.155542 0,1.15986 0.937769,2.112083 2.122824,2.155543 0.855915,0.01714 1.633185,-0.486045 1.951462,-1.263333 h 0.972634 c -0.447217,1.416975 -1.886956,2.300821 -3.386077,2.078689 -1.499121,-0.222131 -2.606582,-1.483406 -2.604604,-2.966354 z"
       id="path5041"
       style="fill:#152c51;fill-opacity:1" />
    <path
       inkscape:connector-curvature="0"
       class="cls-2"
       d="m 91.000001,13.996962 c 0.0017,-1.656853 1.346183,-2.998638 3.003036,-2.99696 1.656853,0.0017 2.998638,1.346181 2.996961,3.003034 -0.0017,1.656853 -1.34618,2.998639 -3.003033,2.996962 -0.795649,-8.05e-4 -1.558392,-0.317647 -2.120431,-0.880826 -0.56204,-0.563178 -0.877338,-1.32656 -0.876533,-2.12221 z m 5.128543,0 c -0.01671,-1.169786 -0.975607,-2.106148 -2.14546,-2.095046 -1.169853,0.0111 -2.110803,0.965495 -2.105312,2.135388 0.0055,1.169892 0.955361,2.115409 2.125266,2.115528 0.56902,5.9e-5 1.114304,-0.228041 1.513798,-0.633243 0.399494,-0.405201 0.619837,-0.953665 0.611708,-1.522627 z"
       id="path5043"
       style="fill:#152c51;fill-opacity:1" />
    <polygon
       class="cls-2"
       id="polygon5045"
       points="103.0938,12.429906 100.96979,15.233645 98.915739,12.495327 98.915739,17 98,17 98,11 98.9062,11 100.98569,13.819315 103.13514,11 104,11 104,17 103.0938,17 "
       style="fill:#152c51;fill-opacity:1" />
    <polygon
       class="cls-2"
       id="polygon5047"
       points="110.0965,12.429906 107.97137,15.233645 105.91304,12.495327 105.91304,17 105,17 105,11 105.90668,11 107.98727,13.819315 110.13786,11 111,11 111,17 110.0965,17 "
       style="fill:#152c51;fill-opacity:1" />
    <path
       inkscape:connector-curvature="0"
       class="cls-2"
       d="M 112,14.983657 V 11 h 0.87805 v 4.026558 c -0.003,0.299825 0.11336,0.588416 0.32373,0.801013 0.21037,0.212596 0.49686,0.331393 0.79517,0.329732 0.29995,0.0025 0.58845,-0.115597 0.80142,-0.327919 0.21296,-0.212323 0.33274,-0.501334 0.33273,-0.802826 V 11.006129 H 116 v 3.983657 C 116,16.099996 115.10457,17 114,17 c -1.10457,0 -2,-0.900004 -2,-2.010214 z"
       id="path5049"
       style="fill:#152c51;fill-opacity:1" />
    <polygon
       class="cls-2"
       id="polygon5051"
       points="117.9174,12.389408 117.9174,17 117.01261,17 117,11 118.02144,11 121.10151,15.535825 121.10151,11 122,11 122,17 121.05422,17 "
       style="fill:#152c51;fill-opacity:1" />
    <polygon
       class="cls-2"
       id="polygon5053"
       points="123,17 123,11 124,11 124,17 "
       style="fill:#152c51;fill-opacity:1" />
    <path
       inkscape:connector-curvature="0"
       class="cls-2"
       d="m 125.00003,13.999581 c -0.003,-0.801747 0.32285,-1.571179 0.9054,-2.135249 0.58256,-0.56407 1.37249,-0.875421 2.19216,-0.86403 1.35175,-0.0024 2.53907,0.877564 2.90241,2.150998 h -0.95715 c -0.30353,-0.806081 -1.09823,-1.333594 -1.97624,-1.311806 -1.18505,0.04346 -2.12282,0.995683 -2.12282,2.155542 0,1.15986 0.93777,2.112083 2.12282,2.155543 0.85592,0.01714 1.63319,-0.486045 1.95146,-1.263333 h 0.97264 c -0.44722,1.416975 -1.88696,2.300821 -3.38608,2.078689 -1.49912,-0.222131 -2.60658,-1.483406 -2.6046,-2.966354 z"
       id="path5055"
       style="fill:#152c51;fill-opacity:1" />
    <path
       inkscape:connector-curvature="0"
       class="cls-2"
       d="m 134.05728,11 h 0.87668 L 137,17 h -0.87668 l -0.44126,-1.283489 h -2.37288 L 132.87668,17 H 132 Z m -0.46172,3.862928 h 1.78843 l -0.89422,-2.638629 z"
       id="path5057"
       style="fill:#152c51;fill-opacity:1" />
    <polygon
       class="cls-2"
       id="polygon5059"
       points="138.5763,17 138.5763,11.838006 137,11.838006 137,11 141,11 141,11.838006 139.42074,11.838006 139.42074,17 "
       style="fill:#152c51;fill-opacity:1" />
    <polygon
       class="cls-2"
       id="polygon5061"
       points="142,17 142,11 143,11 143,17 "
       style="fill:#152c51;fill-opacity:1" />
    <path
       inkscape:connector-curvature="0"
       class="cls-2"
       d="m 144,13.996962 c 0.002,-1.656853 1.34618,-2.998638 3.00304,-2.99696 1.65685,0.0017 2.99863,1.346181 2.99696,3.003034 -0.002,1.656853 -1.34618,2.998639 -3.00304,2.996962 -0.79565,-8.05e-4 -1.55839,-0.317647 -2.12043,-0.880826 -0.56204,-0.563178 -0.87733,-1.32656 -0.87653,-2.12221 z m 5.12854,0 c -0.0167,-1.169786 -0.9756,-2.106148 -2.14546,-2.095046 -1.16985,0.0111 -2.1108,0.965495 -2.10531,2.135388 0.005,1.169892 0.95536,2.115409 2.12527,2.115528 0.56902,5.9e-5 1.1143,-0.228041 1.5138,-0.633243 0.39949,-0.405201 0.61983,-0.953665 0.6117,-1.522627 z"
       id="path5063"
       style="fill:#152c51;fill-opacity:1" />
    <polygon
       class="cls-2"
       id="polygon5065"
       points="151.9068,12.389408 151.9068,17 151,17 151.0063,11 152.0296,11 155.10264,15.535825 155.10264,11 156,11 156,17 155.05542,17 "
       style="fill:#152c51;fill-opacity:1" />
    <path
       inkscape:connector-curvature="0"
       class="cls-2"
       d="m 84,25.150581 h 0.953137 v 0.05457 c -0.01046,0.271501 0.09999,0.534542 0.30401,0.724035 0.204022,0.189492 0.482557,0.287731 0.766681,0.270407 0.66402,0 1.042097,-0.351693 1.042097,-0.882264 0,-0.606367 -0.635425,-0.806468 -1.299444,-1.055078 -0.806989,-0.303184 -1.652104,-0.663972 -1.652104,-1.703891 0,-0.927742 0.772041,-1.558363 1.87768,-1.558363 1.191422,0 1.928515,0.606367 1.906275,1.694795 h -0.895949 v -0.06367 c 0,-0.56089 -0.387609,-0.873168 -1.01668,-0.873168 -0.578237,0 -0.953137,0.303183 -0.953137,0.785245 0,0.551794 0.578236,0.751895 1.299443,1.02476 C 87.154885,23.871147 88,24.277413 88,25.311268 88,26.1905 87.329627,27 86.046068,27 84.76251,27 84,26.332996 84,25.150581 Z"
       id="path5067"
       style="fill:#152c51;fill-opacity:1" />
    <path
       inkscape:connector-curvature="0"
       class="cls-2"
       d="m 89.000014,23.993926 c 0.0034,-1.656455 1.348596,-2.996715 3.00505,-2.993922 1.656453,0.0028 2.997167,1.347585 2.994933,3.004041 -0.0022,1.656456 -1.346568,2.997627 -3.003024,2.995953 -0.796423,4e-6 -1.560096,-0.316997 -2.122397,-0.881008 -0.562302,-0.564011 -0.876983,-1.328643 -0.874562,-2.125064 z m 5.125499,0 c -0.01671,-1.169787 -0.975606,-2.106149 -2.145457,-2.095046 -1.169851,0.0111 -2.110801,0.965495 -2.105309,2.135387 0.0055,1.169893 0.955359,2.11541 2.125263,2.115529 0.567438,-0.0024 1.110369,-0.231544 1.507887,-0.636478 0.397519,-0.404933 0.616618,-0.952007 0.608507,-1.519392 z"
       id="path5069"
       style="fill:#152c51;fill-opacity:1" />
    <polygon
       class="cls-2"
       id="polygon5071"
       points="96.807692,21 96.807692,26.143747 99,26.143747 99,27 96,27 96,21 "
       style="fill:#152c51;fill-opacity:1" />
    <path
       inkscape:connector-curvature="0"
       class="cls-2"
       d="M 100,24.983657 V 21 h 0.87805 v 4.026558 c -0.003,0.299825 0.11336,0.588416 0.32373,0.801013 0.21037,0.212596 0.49686,0.331393 0.79517,0.329732 0.29995,0.0025 0.58845,-0.115597 0.80142,-0.32792 0.21296,-0.212322 0.33274,-0.501333 0.33273,-0.802825 V 21.006129 H 104 v 3.983656 C 104,26.099996 103.10457,27 102,27 c -1.10457,0 -2,-0.900004 -2,-2.010215 z"
       id="path5073"
       style="fill:#152c51;fill-opacity:1" />
    <polygon
       class="cls-2"
       id="polygon5075"
       points="106.57809,27 106.57809,21.837571 105,21.837571 105,21 109,21 109,21.837571 107.42191,21.837571 107.42191,27 "
       style="fill:#152c51;fill-opacity:1" />
    <polygon
       class="cls-2"
       id="polygon5077"
       points="110,27 110,21 111,21 111,27 "
       style="fill:#152c51;fill-opacity:1" />
    <path
       inkscape:connector-curvature="0"
       class="cls-2"
       d="m 113.00001,23.993926 c 0.003,-1.656455 1.34859,-2.996715 3.00505,-2.993922 1.65645,0.0028 2.99717,1.347585 2.99494,3.004041 -0.002,1.656456 -1.34657,2.997627 -3.00303,2.995953 -0.79618,-8.04e-4 -1.55938,-0.318063 -2.12151,-0.881899 -0.56212,-0.563836 -0.87707,-1.327998 -0.87545,-2.124173 z m 5.12854,0 c -0.0167,-1.169787 -0.97561,-2.106149 -2.14546,-2.095046 -1.16985,0.0111 -2.1108,0.965495 -2.10531,2.135387 0.005,1.169893 0.95536,2.11541 2.12526,2.115529 0.56902,5.8e-5 1.11431,-0.228042 1.5138,-0.633243 0.3995,-0.405201 0.61984,-0.953666 0.61171,-1.522627 z"
       id="path5079"
       style="fill:#152c51;fill-opacity:1" />
    <polygon
       class="cls-2"
       id="polygon5081"
       points="120.9174,22.391801 120.9174,27 120.00946,27 120,21 121.02459,21 124.10151,25.533472 124.10151,21 125,21 125,27 124.05422,27 "
       style="fill:#152c51;fill-opacity:1" />
    <path
       inkscape:connector-curvature="0"
       class="cls-2"
       d="m 126,25.150581 h 0.93651 v 0.05457 c -0.01,0.271787 0.10157,0.534777 0.30591,0.724158 0.20435,0.189381 0.48293,0.287539 0.7671,0.270284 0.6635,0 1.0381,-0.351693 1.0381,-0.882264 0,-0.606367 -0.61905,-0.806468 -1.29841,-1.055078 -0.80318,-0.303184 -1.6508,-0.663972 -1.6508,-1.703891 0,-0.927742 0.77143,-1.558363 1.87937,-1.558363 1.1873,0 1.92381,0.606367 1.90476,1.694795 H 129 v -0.06367 c 0,-0.56089 -0.38413,-0.873168 -1.0127,-0.873168 -0.57778,0 -0.95238,0.303183 -0.95238,0.785245 0,0.551794 0.57778,0.751895 1.29841,1.02476 C 129.15238,23.871147 130,24.277413 130,25.311268 130,26.1905 129.33016,27 128.04762,27 126.76508,27 126,26.332996 126,25.150581 Z"
       id="path5083"
       style="fill:#152c51;fill-opacity:1" />
  </g>
  <defs
     id="defs5094" />
  <sodipodi:namedview
     pagecolor="#ffffff"
     bordercolor="#666666"
     borderopacity="1"
     objecttolerance="10"
     gridtolerance="10"
     guidetolerance="10"
     inkscape:pageopacity="0"
     inkscape:pageshadow="2"
     inkscape:window-width="1920"
     inkscape:window-height="1001"
     id="namedview5092"
     showgrid="false"
     inkscape:zoom="3.2318406"
     inkscape:cx="113.55506"
     inkscape:cy="81.907124"
     inkscape:window-x="-9"
     inkscape:window-y="-9"
     inkscape:window-maximized="1"
     inkscape:current-layer="EEA_LOGO-white" />
</svg>
