<svg width="364" height="31" xmlns="http://www.w3.org/2000/svg">
  <style type="text/css">.st0{fill:#ffffff;}
    .st1{fill:#ffffff;}
    .st2{fill:#ffffff;}
    .st3{fill:#ffffff;}</style>

  <g>
    <title>background</title>
    <rect fill="none" id="canvas_background" height="33" width="366" y="-1" x="-1"/>
  </g>
  <g>
    <title>Layer 1</title>
    <g id="svg_1">
      <path id="svg_2" d="m274.9,21l0,-9.9l3,0l0,-3l9,0l0,-6l3.9,0l0,21.9l-12.9,0l0,-3l-3,0zm3.9,-0.9l8.1,0l0,-8.1l-8.1,0l0,8.1z" class="st0"/>
      <path id="svg_3" d="m298.4,8.1l0,15.9l-3.9,0l0,-15.9l3.9,0z" class="st0"/>
      <path id="svg_4" d="m314,26.1l0,-2.1l-9,0l0,-3l-3,0l0,-9.9l3,0l0,-3l12.9,0l0,21.9l-13,0l0,-3.9l9.1,0zm-8.2,-6l8.1,0l0,-8.1l-8.1,0l0,8.1z" class="st0"/>
      <path id="svg_5" d="m325.4,8.1l0,15.9l-3.9,0l0,-15.9l3.9,0z" class="st0"/>
      <path id="svg_6" d="m332,24l0,-12l-3,0l0,-3.9l3,0l0,-6l3.9,0l0,6l3,0l0,3.9l-3,0l0,12l-3.9,0z" class="st0"/>
      <path id="svg_7" d="m343.1,24l0,-3l-3,0l0,-3.9l3,0l0,-3l9,0l0,-2.1l-9.3,0l0,-3.9l10.2,0l0,3l3,0l0,9.9l-3,0l0,3l-9.9,0zm0.9,-3.9l8.1,0l0,-2.1l-8.1,0l0,2.1z" class="st0"/>
      <path id="svg_8" d="m363.5,2.1l0,21.9l-3.9,0l0,-21.9l3.9,0z" class="st0"/>
    </g>
    <g id="svg_9">
      <path id="svg_10" d="m140.7,18.9c1.4,1 2.6,1.5 3.7,1.5c1.1,0 1.5,-0.3 1.5,-0.9c0,-0.8 -1.4,-1.1 -2.9,-1.7c-1.7,-0.7 -3.8,-2 -3.8,-4.5c0,-2.9 2.4,-4.9 6,-4.9c2.5,0 4.2,1 5.5,2l-2.3,3.1c-1.1,-0.8 -2.1,-1.3 -3.1,-1.3c-0.9,0 -1.3,0.2 -1.3,0.8c0,0.8 1.3,1.1 2.8,1.6c1.8,0.7 3.9,1.8 3.9,4.5c0,2.8 -2.2,5 -6.4,5c-1.9,0 -4.3,-0.8 -5.8,-2.1l2.2,-3.1z" class="st1"/>
      <path id="svg_11" d="m152.3,2.9l5.2,0l0,15.8c0,1 0.5,1.3 0.8,1.3c0.2,0 0.3,0 0.5,-0.1l0.6,3.8c-0.5,0.2 -1.4,0.4 -2.5,0.4c-3.5,0 -4.6,-2.3 -4.6,-5.7l0,-15.5z" class="st1"/>
      <path id="svg_12" d="m167.1,8.4c3.9,0 7.5,2.9 7.5,7.9c0,5 -3.6,7.9 -7.5,7.9c-3.9,0 -7.5,-2.9 -7.5,-7.9c0,-5 3.6,-7.9 7.5,-7.9zm0,11.6c1.6,0 2.2,-1.4 2.2,-3.7c0,-2.3 -0.6,-3.7 -2.2,-3.7c-1.6,0 -2.2,1.4 -2.2,3.7c0,2.3 0.6,3.7 2.2,3.7z" class="st1"/>
      <path id="svg_13" d="m174.9,8.8l5.2,0l1.6,6.6c0.4,1.5 0.7,3.1 1.1,4.7l0.1,0c0.4,-1.6 0.7,-3.2 1.1,-4.7l1.6,-6.6l4.9,0l-4.8,15l-6,0l-4.8,-15z" class="st1"/>
      <path id="svg_14" d="m198.2,8.4c4.5,0 6.6,3.2 6.6,7.3c0,0.9 -0.1,1.7 -0.2,2l-8.6,0c0.5,1.9 1.8,2.5 3.5,2.5c1,0 2,-0.3 3.1,-0.9l1.7,3.1c-1.6,1.1 -3.8,1.7 -5.5,1.7c-4.4,0 -7.8,-2.9 -7.8,-7.9c0,-4.8 3.6,-7.8 7.2,-7.8zm2.2,6.2c0,-1.3 -0.5,-2.3 -2,-2.3c-1.1,0 -2.1,0.6 -2.4,2.3l4.4,0z" class="st1"/>
      <path id="svg_15" d="m206.6,8.8l4.2,0l0.4,1.8l0.1,0c1.2,-1.1 2.7,-2.2 4.8,-2.2c3.3,0 4.7,2.4 4.7,6.1l0,9.3l-5.2,0l0,-8.6c0,-1.9 -0.5,-2.4 -1.5,-2.4c-1,0 -1.5,0.4 -2.3,1.1l0,9.9l-5.2,0l0,-15z" class="st1"/>
      <path id="svg_16" d="m224.3,18.9c1.4,1 2.6,1.5 3.7,1.5c1.1,0 1.5,-0.3 1.5,-0.9c0,-0.8 -1.4,-1.1 -2.9,-1.7c-1.7,-0.7 -3.8,-2 -3.8,-4.5c0,-2.9 2.4,-4.9 6,-4.9c2.5,0 4.2,1 5.5,2l-2.3,3.1c-1.1,-0.8 -2.1,-1.3 -3.1,-1.3c-0.9,0 -1.3,0.2 -1.3,0.8c0,0.8 1.3,1.1 2.8,1.6c1.8,0.7 3.9,1.8 3.9,4.5c0,2.8 -2.2,5 -6.4,5c-1.9,0 -4.3,-0.8 -5.8,-2.1l2.2,-3.1z" class="st1"/>
      <path id="svg_17" d="m235.9,2.9l5.1,0l0,11.1l0.1,0l4.2,-5.2l5.6,0l-5.4,6.3l5.7,8.8l-5.6,0l-3,-5.4l-1.6,1.7l0,3.6l-5.1,0l0,-20.9z" class="st1"/>
      <path id="svg_18" d="m257.6,8.4c3.9,0 7.5,2.9 7.5,7.9c0,5 -3.6,7.9 -7.5,7.9c-3.9,0 -7.5,-2.9 -7.5,-7.9c0,-5 3.6,-7.9 7.5,-7.9zm0,11.6c1.6,0 2.2,-1.4 2.2,-3.7c0,-2.3 -0.6,-3.7 -2.2,-3.7c-1.6,0 -2.2,1.4 -2.2,3.7c0,2.3 0.6,3.7 2.2,3.7z" class="st1"/>
    </g>
    <rect id="svg_19" height="3.9" width="3.9" class="st2" y="20.1" x="268.3"/>
    <rect id="svg_20" height="3.9" width="3.9" class="st2" y="1.9" x="294.5"/>
    <rect id="svg_21" height="3.9" width="3.9" class="st2" y="1.9" x="321.3"/>
    <g id="svg_22">
      <path id="svg_23" d="m8.8,9c3.7,0 5.8,2.7 5.8,6.9c0,0.5 0,1 -0.1,1.4l-9.9,0c0.2,3.2 2.1,5.1 4.9,5.1c1.4,0 2.6,-0.5 3.6,-1.1l0.9,1.6c-1.3,0.8 -2.8,1.5 -4.8,1.5c-3.9,0 -7,-2.9 -7,-7.6s3.3,-7.8 6.6,-7.8zm3.7,6.6c0,-3 -1.3,-4.6 -3.6,-4.6c-2,0 -3.9,1.7 -4.2,4.6l7.8,0z" class="st3"/>
      <path id="svg_24" d="m17.5,2.6l2.4,0l0,14.5l0.1,0l6.2,-7.7l2.7,0l-4.9,5.9l5.6,8.8l-2.7,0l-4.3,-7l-2.7,3.2l0,3.9l-2.4,0l0,-21.6z" class="st3"/>
      <path id="svg_25" d="m36.7,9c3.6,0 6.8,2.8 6.8,7.7c0,4.8 -3.2,7.6 -6.8,7.6c-3.6,0 -6.8,-2.8 -6.8,-7.6c0,-4.9 3.2,-7.7 6.8,-7.7zm0,13.3c2.5,0 4.2,-2.3 4.2,-5.6c0,-3.4 -1.7,-5.7 -4.2,-5.7c-2.5,0 -4.2,2.3 -4.2,5.7c0,3.4 1.7,5.6 4.2,5.6z" class="st3"/>
      <path id="svg_26" d="m46,20.7c1.3,1 2.6,1.7 4.3,1.7c1.9,0 2.9,-1 2.9,-2.3c0,-1.5 -1.7,-2.2 -3.3,-2.8c-2.1,-0.8 -4.4,-1.7 -4.4,-4.2c0,-2.3 1.9,-4.2 5,-4.2c1.8,0 3.4,0.8 4.5,1.7l-1.2,1.6c-1,-0.8 -2,-1.3 -3.3,-1.3c-1.8,0 -2.7,1 -2.7,2.1c0,1.4 1.6,1.9 3.2,2.5c2.1,0.8 4.5,1.7 4.5,4.4c0,2.4 -1.9,4.4 -5.4,4.4c-2.1,0 -4.1,-0.9 -5.4,-2l1.3,-1.6z" class="st3"/>
      <path id="svg_27" d="m58.3,28.2c1.7,0 2.7,-1.3 3.3,-3.1l0.3,-1.1l-5.9,-14.7l2.6,0l3,8.1c0.5,1.3 1,2.8 1.4,4.1l0.1,0c0.4,-1.3 0.8,-2.8 1.2,-4.1l2.6,-8.1l2.4,0l-5.5,15.8c-1,2.9 -2.5,5.1 -5.5,5.1c-0.7,0 -1.2,-0.1 -1.7,-0.3l0.5,-2c0.3,0.2 0.8,0.3 1.2,0.3z" class="st3"/>
      <path id="svg_28" d="m70.9,20.7c1.3,1 2.6,1.7 4.3,1.7c1.9,0 2.9,-1 2.9,-2.3c0,-1.5 -1.7,-2.2 -3.3,-2.8c-2.1,-0.8 -4.4,-1.7 -4.4,-4.2c0,-2.3 1.9,-4.2 5,-4.2c1.8,0 3.4,0.8 4.5,1.7l-1.2,1.6c-1,-0.8 -2,-1.3 -3.3,-1.3c-1.8,0 -2.7,1 -2.7,2.1c0,1.4 1.6,1.9 3.2,2.5c2.1,0.8 4.5,1.7 4.5,4.4c0,2.4 -1.9,4.4 -5.4,4.4c-2.1,0 -4.1,-0.9 -5.4,-2l1.3,-1.6z" class="st3"/>
      <path id="svg_29" d="m83.4,11.4l-2.2,0l0,-1.9l2.3,-0.2l0.3,-4.1l2.1,0l0,4.1l3.9,0l0,2l-3.9,0l0,8.1c0,1.8 0.6,2.8 2.3,2.8c0.5,0 1.2,-0.2 1.7,-0.4l0.5,1.9c-0.8,0.3 -1.8,0.5 -2.7,0.5c-3.1,0 -4.2,-2 -4.2,-4.9l0,-7.9l-0.1,0z" class="st3"/>
      <path id="svg_30" d="m97.4,9c3.7,0 5.8,2.7 5.8,6.9c0,0.5 0,1 -0.1,1.4l-9.9,0c0.2,3.2 2.1,5.1 4.9,5.1c1.4,0 2.6,-0.5 3.6,-1.1l0.9,1.6c-1.3,0.8 -2.8,1.5 -4.8,1.5c-3.9,0 -7,-2.9 -7,-7.6s3.3,-7.8 6.6,-7.8zm3.7,6.6c0,-3 -1.3,-4.6 -3.6,-4.6c-2,0 -3.9,1.7 -4.2,4.6l7.8,0zm-3.7,-8.8l-1.9,0l2.7,-4.2l2.6,0l-3.4,4.2z" class="st3"/>
      <path id="svg_31" d="m106.1,9.4l2,0l0.2,2.1l0.1,0c1.3,-1.4 2.8,-2.5 4.5,-2.5c2.2,0 3.4,1.1 4,2.8c1.5,-1.7 3,-2.8 4.8,-2.8c3,0 4.5,2 4.5,5.7l0,9.3l-2.5,0l0,-8.9c0,-2.7 -0.9,-3.9 -2.7,-3.9c-1.1,0 -2.3,0.8 -3.7,2.3l0,10.5l-2.5,0l0,-8.9c0,-2.7 -0.9,-3.9 -2.7,-3.9c-1.1,0 -2.3,0.8 -3.7,2.3l0,10.5l-2.5,0l0,-14.6l0.2,0z" class="st3"/>
    </g>
    <rect id="svg_32" height="3.9" width="3.9" class="st2" y="20.1" x="130.9"/>
  </g>
</svg>
