<svg width="1380" height="1380" viewBox="0 0 1380 1380" fill="none" xmlns="http://www.w3.org/2000/svg">
<path d="M820.156 474.72C890.088 474.72 946.78 532.068 946.78 602.808C946.78 602.811 946.78 602.816 946.78 602.819C946.78 625.847 940.772 647.455 930.255 666.128C964.278 689.935 986.566 729.686 986.566 774.702C986.566 774.702 986.566 774.703 986.566 774.703C986.566 847.564 928.176 906.63 856.147 906.63C750.634 906.63 619.487 906.63 619.487 906.63V474.72H820.156ZM571.573 906.599H287.04V474.72H393.391V817.47H571.573V906.599ZM880.681 767.462C880.681 739.847 858.551 717.462 831.252 717.462C784.322 717.462 720.896 717.462 720.896 717.462V817.47C720.896 817.47 784.322 817.47 831.252 817.47C858.551 817.47 880.681 795.084 880.681 767.47C880.681 767.467 880.681 767.464 880.681 767.462ZM845.261 603.343C845.261 590.864 840.36 578.895 831.638 570.071C822.914 561.248 811.082 556.289 798.746 556.289C763.42 556.289 720.874 556.289 720.874 556.289V650.407C720.874 650.407 763.42 650.407 798.746 650.407C811.082 650.407 822.914 645.45 831.638 636.626C840.36 627.801 845.261 615.834 845.261 603.354C845.261 603.351 845.261 603.346 845.261 603.343Z" fill="black"/>
<path d="M1115.78 690.903H1083.91V610.849L1015.38 650.876L999.443 622.96L1067.98 582.933L999.443 542.906L1015.38 514.991L1083.91 555.018V474.964H1115.78V555.018L1184.31 514.991L1200.25 542.906L1131.71 582.933L1200.25 622.96L1184.31 650.876L1115.78 610.849V690.903Z" fill="#FF6E00"/>
</svg>
