<svg xmlns="http://www.w3.org/2000/svg" viewBox="0 0 165.5 20.61"><defs><style>.a{fill:#fff;}</style></defs><title>slovenskodigital-logo</title><path class="a" d="M100.78,15.42V8.13H103V5.92h6.63V1.51h2.87V17.59H103V15.42h-2.21Zm2.87-.67h6v-6h-6v6Z" transform="translate(-0.4 -1.39)"/><path class="a" d="M118,5.92V17.59h-2.87V5.92H118Z" transform="translate(-0.4 -1.39)"/><path class="a" d="M129.49,19.13V17.59h-6.63V15.42h-2.21V8.13h2.21V5.92h9.49V22h-9.58V19.13h6.71Zm-6-4.39h6v-6h-6v6Z" transform="translate(-0.4 -1.39)"/><path class="a" d="M137.87,5.92V17.59H135V5.92h2.87Z" transform="translate(-0.4 -1.39)"/><path class="a" d="M142.72,17.59V8.79h-2.21V5.92h2.21V1.51h2.87V5.92h2.21V8.79h-2.21v8.81h-2.87Z" transform="translate(-0.4 -1.39)"/><path class="a" d="M150.89,17.59V15.42h-2.21V12.55h2.21V10.34h6.63V8.79h-6.82V5.92h7.47V8.13h2.21v7.29h-2.21v2.18h-7.29Zm0.66-2.85h6V13.21h-6v1.54Z" transform="translate(-0.4 -1.39)"/><path class="a" d="M165.9,1.51V17.59H163V1.51h2.87Z" transform="translate(-0.4 -1.39)"/><path class="a" d="M2.08,13.87A4.74,4.74,0,0,0,4.78,15c0.8,0,1.11-.22,1.11-0.66s-1-.84-2.12-1.28C2.48,12.52,1,11.56,1,9.75,1,7.58,2.74,6.17,5.35,6.17A6.55,6.55,0,0,1,9.43,7.63L7.74,9.88A4.11,4.11,0,0,0,5.49,9c-0.64,0-1,.18-1,0.62s1,0.8,2.08,1.19c1.33,0.49,2.83,1.33,2.83,3.32s-1.64,3.67-4.73,3.67A7.38,7.38,0,0,1,.4,16.21Z" transform="translate(-0.4 -1.39)"/><path class="a" d="M10.62,2.09h3.81V13.73c0,0.75.35,1,.62,1a1.34,1.34,0,0,0,.4,0l0.44,2.79a4.71,4.71,0,0,1-1.86.31c-2.57,0-3.41-1.68-3.41-4.16V2.09Z" transform="translate(-0.4 -1.39)"/><path class="a" d="M21.46,6.17A5.48,5.48,0,0,1,26.95,12a5.5,5.5,0,1,1-11,0A5.48,5.48,0,0,1,21.46,6.17Zm0,8.54c1.15,0,1.59-1.06,1.59-2.74s-0.44-2.74-1.59-2.74S19.87,10.28,19.87,12,20.31,14.71,21.46,14.71Z" transform="translate(-0.4 -1.39)"/><path class="a" d="M27,6.43h3.81L32,11.25q0.4,1.66.8,3.45h0.09q0.4-1.79.8-3.45l1.19-4.82h3.63L35,17.49H30.66Z" transform="translate(-0.4 -1.39)"/><path class="a" d="M43.94,6.17c3.27,0,4.82,2.39,4.82,5.35a6.9,6.9,0,0,1-.15,1.5H42.3a2.32,2.32,0,0,0,2.57,1.86,4.54,4.54,0,0,0,2.26-.66l1.24,2.26a7.45,7.45,0,0,1-4,1.28A5.43,5.43,0,0,1,38.63,12,5.48,5.48,0,0,1,43.94,6.17Zm1.59,4.56A1.42,1.42,0,0,0,44,9a1.75,1.75,0,0,0-1.77,1.68h3.27Z" transform="translate(-0.4 -1.39)"/><path class="a" d="M50.18,6.43h3.1l0.27,1.33h0.09a5,5,0,0,1,3.5-1.59c2.43,0,3.45,1.77,3.45,4.51v6.81H56.77V11.17c0-1.42-.35-1.77-1.11-1.77a2.3,2.3,0,0,0-1.68.84v7.26H50.18V6.43Z" transform="translate(-0.4 -1.39)"/><path class="a" d="M63.18,13.87A4.74,4.74,0,0,0,65.88,15c0.8,0,1.11-.22,1.11-0.66s-1-.84-2.12-1.28c-1.28-.51-2.79-1.46-2.79-3.27,0-2.17,1.77-3.58,4.38-3.58a6.55,6.55,0,0,1,4.07,1.46L68.85,9.88A4.11,4.11,0,0,0,66.59,9c-0.64,0-1,.18-1,0.62s1,0.8,2.08,1.19c1.33,0.49,2.83,1.33,2.83,3.32s-1.64,3.67-4.73,3.67a7.38,7.38,0,0,1-4.29-1.55Z" transform="translate(-0.4 -1.39)"/><path class="a" d="M71.72,2.09h3.72v8.19h0.09l3.05-3.85H82.7L78.76,11l4.16,6.46H78.8l-2.21-3.94-1.15,1.28v2.66H71.72V2.09Z" transform="translate(-0.4 -1.39)"/><path class="a" d="M87.39,6.17A5.48,5.48,0,0,1,92.87,12a5.5,5.5,0,1,1-11,0A5.48,5.48,0,0,1,87.39,6.17Zm0,8.54C88.54,14.71,89,13.64,89,12s-0.44-2.74-1.59-2.74S85.79,10.28,85.79,12,86.24,14.71,87.39,14.71Z" transform="translate(-0.4 -1.39)"/><rect class="a" x="95.52" y="13.35" width="2.87" height="2.87"/><rect class="a" x="114.75" width="2.87" height="2.87"/><rect class="a" x="134.49" width="2.87" height="2.87"/></svg>